# xmcd
# 
# Track frame offsets:
#     150
#     16065
#     29377
#     46237
#     59702
#     75922
#     91460
#     106807
#     119357
#     133815
#     148212
#     161362
#     172362
#     191015
#     202555
#     217560
#     235480
#     251035
#     264860
#     281655
#     296450
#     314167
# 
# Disc length: 4367
# 
# Revision: 3
# Processed by: cddbd v1.5.2PL0 Copyright (c) Steve Scherf et al.
# Submitted via: BonkEnc v1.0.15
# 
DISCID=3d110d16
DTITLE=Eddy Mitchell - Collection - Disc 1
DYEAR=2002
DGENRE=Blues
TTITLE0=Couleur menthe à l'eau
TTITLE1=Sur la route de Memphis
TTITLE2=Pas de boogie woogie
TTITLE3=La fille du motel
TTITLE4=La dernière séance
TTITLE5=C'est un rocker
TTITLE6=Toujours un coin qui me rappelle
TTITLE7=Alice
TTITLE8=A crédit et en stéréo
TTITLE9=Chaque matin il se lève
TTITLE10=Il ne rentre pas ce soir
TTITLE11=Je vais craquer bientôt
TTITLE12=Le cimetière des éléphants
TTITLE13=Et la voix d'Elvis
TTITLE14=Tu peux préparer le café noir
TTITLE15=Happy birthday rock'n'roll
TTITLE16=Y'a rien qui remplace un amour
TTITLE17=J'vous dérange ?
TTITLE18=Pauvre baby doll
TTITLE19=Nashville ou Belleville ?
TTITLE20=Comme quand j'étais môme
TTITLE21=Vieillle canaille (avec S. Gainsbourg)
EXTD=YEAR: 2002
EXTT0=
EXTT1=
EXTT2=
EXTT3=
EXTT4=
EXTT5=
EXTT6=
EXTT7=
EXTT8=
EXTT9=
EXTT10=
EXTT11=
EXTT12=
EXTT13=
EXTT14=
EXTT15=
EXTT16=
EXTT17=
EXTT18=
EXTT19=
EXTT20=
EXTT21=
PLAYORDER=
